<svg width="26" height="25" viewBox="0 0 26 25" fill="none" xmlns="http://www.w3.org/2000/svg">
<path fill-rule="evenodd" clip-rule="evenodd" d="M25.5 22.7214L23.7325 24.4047L18.4287 19.3547L20.1963 17.6702L25.5 22.7214ZM10.5 17.2619C6.36499 17.2619 3.00001 14.0583 3.00001 10.119C3.00001 6.18093 6.36499 2.97617 10.5 2.97617C14.635 2.97617 18 6.18093 18 10.119C18 14.0583 14.635 17.2619 10.5 17.2619ZM10.5 0.595215C4.97749 0.595215 0.5 4.8595 0.5 10.119C0.5 15.3785 4.97749 19.6428 10.5 19.6428C16.0225 19.6428 20.5 15.3785 20.5 10.119C20.5 4.8595 16.0225 0.595215 10.5 0.595215Z" fill="black"/>
</svg>
