<svg width="24" height="29" viewBox="0 0 24 29" fill="none" xmlns="http://www.w3.org/2000/svg">
<path fill-rule="evenodd" clip-rule="evenodd" d="M20.75 19.6875V12.3958C20.75 7.91875 18.3728 4.17083 14.1875 3.17917V2.1875C14.1875 0.977083 13.2105 0 12 0C10.7895 0 9.81248 0.977083 9.81248 2.1875V3.17917C5.64165 4.17083 3.24998 7.90417 3.24998 12.3958V19.6875L0.333313 22.6042V24.0625H23.6666V22.6042L20.75 19.6875ZM12 28.4375C13.6041 28.4375 14.9166 27.125 14.9166 25.5208H9.08331C9.08331 27.125 10.3958 28.4375 12 28.4375ZM6.16665 21.1458H17.8333V12.3958C17.8333 8.77917 15.6313 5.83333 12 5.83333C8.36873 5.83333 6.16665 8.77917 6.16665 12.3958V21.1458Z" fill="black"/>
</svg>
